<svg width="50" height="50" viewBox="0 0 50 50" fill="none" xmlns="http://www.w3.org/2000/svg">
<g clip-path="url(#clip0_17_92)">
<path d="M25.1667 0.765625C11.6302 0.765625 0.65625 11.776 0.65625 25.3646C0.65625 37.5677 9.52604 47.7031 21.1354 49.6198V32.9427H14.8958V25.6406H21.1354V20.3385C21.1354 14.5885 25.7813 10.6875 31.5104 10.6875C34.0573 10.6875 35.651 11.0729 35.651 11.0729V17.2083H31.5104C29.7917 17.2083 28.3906 18.6094 28.3906 20.3385V25.6406H35.0781L34.1458 32.9427H28.3906V49.724C40.3854 48.1302 49.6354 37.8229 49.6354 25.3646C49.6563 11.776 38.6875 0.765625 25.1667 0.765625Z" fill="#B91F33"/>
</g>
<defs>
<clipPath id="clip0_17_92">
<rect width="50" height="50" fill="white"/>
</clipPath>
</defs>
</svg>
