<svg width="100" height="68" viewBox="0 0 100 68" fill="none" xmlns="http://www.w3.org/2000/svg">
<g clip-path="url(#clip0_4_81)">
<path d="M9.39597 18.792C9.39597 16.1973 7.29261 14.094 4.69799 14.094C2.10336 14.094 0 16.1973 0 18.792V33.5571C0 36.1517 2.10336 38.255 4.69799 38.255C7.29261 38.255 9.39597 36.1517 9.39597 33.5571V18.792Z" fill="#B91F33"/>
<path d="M100 18.792C100 16.1973 97.8966 14.094 95.302 14.094C92.7074 14.094 90.604 16.1973 90.604 18.792V33.5571C90.604 36.1517 92.7074 38.255 95.302 38.255C97.8966 38.255 100 36.1517 100 33.5571V18.792Z" fill="#B91F33"/>
<path d="M54.3624 18.792C54.3624 16.1973 52.259 14.094 49.6644 14.094C47.0698 14.094 44.9664 16.1973 44.9664 18.792V33.5571C44.9664 36.1517 47.0698 38.255 49.6644 38.255C52.259 38.255 54.3624 36.1517 54.3624 33.5571V18.792Z" fill="#B91F33"/>
<path d="M24.161 12.7517C24.161 10.157 22.0577 8.05368 19.4631 8.05368C16.8684 8.05368 14.7651 10.157 14.7651 12.7517V39.5973C14.7651 42.1919 16.8684 44.2953 19.4631 44.2953C22.0577 44.2953 24.161 42.1919 24.161 39.5973V12.7517Z" fill="#B91F33"/>
<path d="M84.5638 12.7517C84.5638 10.157 82.4604 8.05368 79.8658 8.05368C77.2711 8.05368 75.1678 10.157 75.1678 12.7517V39.5973C75.1678 42.1919 77.2711 44.2953 79.8658 44.2953C82.4604 44.2953 84.5638 42.1919 84.5638 39.5973V12.7517Z" fill="#B91F33"/>
<path d="M39.5973 4.69799C39.5973 2.10336 37.494 0 34.8993 0C32.3047 0 30.2014 2.10336 30.2014 4.69799V47.651C30.2014 50.2456 32.3047 52.349 34.8993 52.349C37.494 52.349 39.5973 50.2456 39.5973 47.651V4.69799Z" fill="#B91F33"/>
<path d="M69.7987 4.69799C69.7987 2.10336 67.6953 0 65.1007 0C62.5061 0 60.4027 2.10336 60.4027 4.69799V47.651C60.4027 50.2456 62.5061 52.349 65.1007 52.349C67.6953 52.349 69.7987 50.2456 69.7987 47.651V4.69799Z" fill="#B91F33"/>
<path d="M16.2385 55.0336H19.4132V67.1141H16.2385V62.3346H13.9129V67.1141H10.7383V55.0336H13.9129V59.9824H16.2385V55.0336Z" fill="white"/>
<path d="M26.9216 67.1141L26.5525 65.3076H23.71L23.3225 67.1141H20.1478L23.1933 55.0336H27.1246L30.17 67.1141H26.9216ZM24.2084 62.9744H26.0541L25.1497 58.6276L24.2084 62.9744Z" fill="white"/>
<path d="M34.1378 62.8238V67.1141H30.9078V55.0336H36.3896C38.1984 55.0336 39.1028 55.8113 39.1028 57.3668V60.4905C39.1028 61.6822 38.5737 62.4161 37.5155 62.6921L39.6934 67.1141H36.2235L34.3409 62.8238H34.1378ZM35.4113 57.3857H34.1378V60.5846H35.4113C35.719 60.5846 35.8728 60.4466 35.8728 60.1706V57.7997C35.8728 57.5237 35.719 57.3857 35.4113 57.3857Z" fill="white"/>
<path d="M40.5734 55.0336H46.0182C47.8271 55.0336 48.7314 55.8113 48.7314 57.3668V64.7808C48.7314 66.3363 47.8271 67.1141 46.0182 67.1141H40.5734V55.0336ZM45.5014 64.5362V57.6115C45.5014 57.3355 45.3476 57.1975 45.04 57.1975H43.8034V64.9501H45.04C45.3476 64.9501 45.5014 64.8121 45.5014 64.5362Z" fill="white"/>
<path d="M61.7897 59.5497H58.5597V57.6115C58.5597 57.3355 58.4059 57.1975 58.0983 57.1975H57.4523C57.1447 57.1975 56.9909 57.3355 56.9909 57.6115V64.5362C56.9909 64.8121 57.1447 64.9501 57.4523 64.9501H58.0983C58.4059 64.9501 58.5597 64.8121 58.5597 64.5362V62.6733H61.7897V64.7808C61.7897 66.3363 60.8854 67.1141 59.0766 67.1141H56.4741C54.6653 67.1141 53.7609 66.3363 53.7609 64.7808V57.3668C53.7609 55.8113 54.6653 55.0336 56.4741 55.0336H59.0766C60.8854 55.0336 61.7897 55.8113 61.7897 57.3668V59.5497Z" fill="white"/>
<path d="M65.6494 55.0336H68.3812C70.1899 55.0336 71.0946 55.8113 71.0946 57.3668V64.7808C71.0946 66.3363 70.1899 67.1141 68.3812 67.1141H65.6494C63.8406 67.1141 62.9362 66.3363 62.9362 64.7808V57.3668C62.9362 55.8113 63.8406 55.0336 65.6494 55.0336ZM67.8644 64.348V57.7997C67.8644 57.5237 67.7107 57.3857 67.4027 57.3857H66.6277C66.32 57.3857 66.1663 57.5237 66.1663 57.7997V64.348C66.1663 64.624 66.32 64.7619 66.6277 64.7619H67.4027C67.7107 64.7619 67.8644 64.624 67.8644 64.348Z" fill="white"/>
<path d="M75.7389 62.8238V67.1141H72.5087V55.0336H77.9906C79.7993 55.0336 80.7034 55.8113 80.7034 57.3668V60.4905C80.7034 61.6822 80.1745 62.4161 79.1161 62.6921L81.294 67.1141H77.8242L75.9416 62.8238H75.7389ZM77.0121 57.3857H75.7389V60.5846H77.0121C77.3201 60.5846 77.4738 60.4466 77.4738 60.1706V57.7997C77.4738 57.5237 77.3201 57.3857 77.0121 57.3857Z" fill="white"/>
<path d="M85.2195 64.7619H89.2617V67.1141H81.9893V55.0336H89.0953V57.3857H85.2195V59.8507H88.5604V62.2028H85.2195V64.7619Z" fill="white"/>
</g>
<defs>
<clipPath id="clip0_4_81">
<rect width="100" height="67.1141" fill="white"/>
</clipPath>
</defs>
</svg>
