<svg width="50" height="50" viewBox="0 0 50 50" fill="none" xmlns="http://www.w3.org/2000/svg">
<g clip-path="url(#clip0_17_122)">
<mask id="mask0_17_122" style="mask-type:luminance" maskUnits="userSpaceOnUse" x="0" y="0" width="50" height="50">
<path d="M0 0H50V50H0V0Z" fill="white"/>
</mask>
<g mask="url(#mask0_17_122)">
<path d="M25 0C11.1927 0 0 11.1927 0 25C0 38.8073 11.1927 50 25 50C38.8073 50 50 38.8073 50 25C49.9792 11.1927 38.7865 0 25 0ZM39.5885 19.3698C39.5885 19.3698 40.0208 28.9375 32.75 34.8698C21.8594 43.724 10.1094 36.5365 10.1094 36.5365C10.1094 36.5365 12.9635 36.5781 15.5 35.9115C18.0104 35.2396 19.8281 33.5938 19.8281 33.5938C19.8281 33.5938 17.0781 33.0312 15.651 31.9896C14.2188 30.9531 13.6563 28.9635 13.6563 28.9635C13.6563 28.9635 14.6094 29.0469 15.1927 29.026C15.8021 29.0052 16.5156 28.724 16.5156 28.724C16.5156 28.724 14.5469 28.4844 12.7031 26.4271C11.2552 24.8073 11.3646 22.099 11.3646 22.099C11.3646 22.099 12.2292 22.6198 12.6823 22.7292C13.1406 22.8594 14.026 22.8594 14.026 22.8594C14.026 22.8594 12.2969 21.8385 11.5365 19.1771C10.7813 16.5365 12.2292 13.8542 12.2292 13.8542C12.2292 13.8542 14.8073 16.9688 18.6146 18.9635C22.4219 20.9531 26.0156 20.8854 26.0156 20.8854C26.0156 20.8854 25.5 19.3073 26.4062 16.9688C27.3177 14.6302 29.3698 12.9427 32.5104 12.7031C35.651 12.4479 37.6615 14.8281 37.6615 14.8281C37.6615 14.8281 38.6354 14.6563 39.7396 14.2448C40.8438 13.8542 41.9479 13.3333 41.9479 13.3333C41.9479 13.3333 41.5573 14.526 40.8021 15.4531C40.0417 16.3854 39.1979 16.9479 39.1979 16.9479C39.1979 16.9479 40.1927 16.8854 41.1927 16.6042C42.1875 16.3229 42.7292 16.0365 42.7292 16.0365C41.5781 17.9427 39.5885 19.3698 39.5885 19.3698Z" fill="#B91F33"/>
</g>
</g>
<defs>
<clipPath id="clip0_17_122">
<rect width="50" height="50" fill="white"/>
</clipPath>
</defs>
</svg>
