<svg width="50" height="50" viewBox="0 0 50 50" fill="none" xmlns="http://www.w3.org/2000/svg">
<g clip-path="url(#clip0_17_113)">
<mask id="mask0_17_113" style="mask-type:luminance" maskUnits="userSpaceOnUse" x="0" y="0" width="50" height="50">
<path d="M0 0H50V50H0V0Z" fill="white"/>
</mask>
<g mask="url(#mask0_17_113)">
<path d="M25 0C11.1927 0 0 11.1927 0 25C0 38.8073 11.1927 50 25 50C38.8073 50 50 38.8073 50 25C49.9792 11.1927 38.7865 0 25 0ZM39.3958 31.9896C39.1146 33.8333 37.5104 35.1719 35.651 35.1719H14.3281C12.4687 35.1719 10.8646 33.8333 10.5833 31.9896C10.3229 30.2812 10.0625 27.901 10.0417 24.9792C10.0625 22.0573 10.3021 19.6979 10.5833 17.9635C10.8646 16.125 12.4687 14.7813 14.3281 14.7813H35.651C37.5104 14.7813 39.1146 16.125 39.3958 17.9635C39.6562 19.6771 39.9115 22.0573 39.9375 24.9792C39.9115 27.901 39.6562 30.2812 39.3958 31.9896Z" fill="#B91F33"/>
</g>
<path d="M21.8385 20.9324V29.047L29.3958 25.0001L21.8385 20.9324Z" fill="#B91F33"/>
</g>
<defs>
<clipPath id="clip0_17_113">
<rect width="50" height="50" fill="white"/>
</clipPath>
</defs>
</svg>
